<svg xmlns="http://www.w3.org/2000/svg" width="600" height="400" viewBox="0 0 600 400"><rect width="100%" height="100%" fill="#1a1a1a"/><path fill="#c9a96e" d="m189.69 158.315-4.86 9.2q-.87 1.53-1.85 2.21-.98.69-2.43.69-1.52 0-3.29-1.12-1.78-1.12-4.25-2.5-2.46-1.38-5.76-2.5-3.3-1.13-7.79-1.13-4.06 0-7.11.98-3.04.98-5.11 2.72t-3.08 4.17q-1.02 2.43-1.02 5.33 0 3.7 2.07 6.16t5.47 4.21q3.41 1.74 7.76 3.11 4.35 1.38 8.92 2.94t8.92 3.62q4.35 2.07 7.75 5.22 3.41 3.16 5.48 7.73 2.06 4.56 2.06 11.09 0 7.1-2.42 13.3-2.43 6.2-7.11 10.8-4.68 4.61-11.42 7.25-6.74 2.65-15.44 2.65-5 0-9.86-.98t-9.32-2.79-8.37-4.35q-3.92-2.54-6.96-5.65l5.73-9.36q.72-1.01 1.88-1.7t2.47-.69q1.81 0 3.91 1.49 2.1 1.48 5 3.3 2.9 1.81 6.78 3.29 3.88 1.49 9.32 1.49 8.34 0 12.9-3.95 4.57-3.95 4.57-11.35 0-4.13-2.06-6.74-2.07-2.61-5.48-4.39-3.41-1.77-7.76-3-4.35-1.24-8.84-2.69-4.5-1.45-8.85-3.48t-7.75-5.29q-3.41-3.26-5.48-8.16-2.06-4.89-2.06-12.07 0-5.72 2.28-11.16t6.63-9.64q4.35-4.21 10.73-6.75 6.38-2.53 14.65-2.53 9.28 0 17.11 2.9t13.34 8.12m40.82 96.13q-9.72 0-14.9-5.47-5.19-5.48-5.19-15.12v-41.54h-7.61q-1.45 0-2.46-.94-1.02-.95-1.02-2.83v-7.11l11.96-1.95 3.77-20.3q.37-1.45 1.38-2.25 1.02-.8 2.61-.8h9.28v23.42h19.87v12.76h-19.87v40.31q0 3.48 1.71 5.44 1.7 1.95 4.67 1.95 1.67 0 2.79-.4 1.13-.39 1.96-.83.83-.43 1.49-.83.65-.4 1.3-.4.8 0 1.31.4.5.4 1.08 1.19l5.37 8.7q-3.92 3.27-8.99 4.93-5.08 1.67-10.51 1.67m43.28-46.91h33.78q0-3.48-.97-6.56-.98-3.08-2.94-5.4t-4.97-3.66-6.99-1.34q-7.76 0-12.22 4.42t-5.69 12.54m45.67 10.8h-46.03q.43 5.73 2.03 9.9 1.59 4.17 4.2 6.89t6.2 4.06 7.94 1.34 7.5-1.01q3.16-1.02 5.51-2.25 2.36-1.23 4.14-2.25 1.77-1.02 3.44-1.02 2.25 0 3.33 1.67l5.15 6.53q-2.97 3.48-6.67 5.83-3.7 2.36-7.72 3.77-4.02 1.42-8.19 2t-8.09.58q-7.75 0-14.42-2.58-6.67-2.57-11.6-7.61t-7.76-12.47-2.83-17.22q0-7.61 2.47-14.32 2.46-6.7 7.07-11.67 4.6-4.96 11.23-7.86 6.64-2.91 14.97-2.91 7.04 0 12.98 2.25 5.95 2.25 10.22 6.56 4.28 4.32 6.71 10.59t2.43 14.32q0 4.06-.87 5.47t-3.34 1.41m56.92 15.74v-12.54q-7.76.36-13.05 1.34-5.3.98-8.49 2.5t-4.56 3.55q-1.38 2.03-1.38 4.42 0 4.72 2.79 6.75t7.29 2.03q5.51 0 9.53-2 4.02-1.99 7.87-6.05m-37.85-39.08-3.19-5.73q12.83-11.74 30.89-11.74 6.52 0 11.67 2.14t8.7 5.94q3.55 3.81 5.4 9.1t1.85 11.6v46.98h-8.12q-2.54 0-3.92-.76-1.37-.76-2.17-3.08l-1.6-5.37q-2.82 2.54-5.51 4.46-2.68 1.92-5.58 3.23-2.9 1.3-6.2 1.99t-7.28.69q-4.72 0-8.7-1.27-3.99-1.27-6.89-3.8-2.9-2.54-4.5-6.31-1.59-3.77-1.59-8.77 0-2.83.94-5.62t3.08-5.33 5.55-4.79q3.41-2.24 8.37-3.91 4.97-1.67 11.57-2.72 6.59-1.05 15.08-1.27v-4.35q0-7.47-3.19-11.06-3.19-3.58-9.21-3.58-4.35 0-7.21 1.01-2.87 1.02-5.04 2.28-2.18 1.27-3.95 2.29-1.78 1.01-3.96 1.01-1.88 0-3.19-.98-1.3-.97-2.1-2.28m72.14-49.44h17.91v61.69h3.33q1.81 0 2.86-.47 1.06-.47 2.14-1.92l18.49-22.84q1.16-1.52 2.58-2.32 1.41-.79 3.66-.79h16.38l-23.13 27.62q-2.46 3.26-5.36 5 1.52 1.09 2.72 2.54 1.19 1.45 2.28 3.12l24.8 36.1h-16.17q-2.1 0-3.63-.69-1.52-.69-2.53-2.5l-19-28.2q-1.01-1.67-2.1-2.18-1.09-.5-3.26-.5h-4.06v34.07h-17.91z"/></svg>